PathFileType	4	(X/Y/Z)	C:\Users\°ÂÌØÂü\Desktop\20210112\bx_y_5_502-Unnamed.trc
DataRate	CameraRate	NumFrames	NumMarkers	Units	OrigDataRate	OrigDataStartFrame	OrigNumFrames
50.00	50.00	       9	0	mm	50.00	280	       447
Frame#	Time	
		

280	5.580	-394.86783	275.09293	1125.02881	-855.19470	-74.09007	684.80243	-879.75006	279.93854	724.49139	-966.46948	79.67894	1082.03979	-852.01752	273.68588	856.86206	-786.21735	208.79385	804.44159				-869.66589	247.64325	614.70911	-677.46515	177.03891	162.70197	-785.01074	-17.68615	990.58679	-852.26910	242.93318	557.70258	-871.63611	254.85840	478.13953	-786.79504	203.39351	531.19037	-850.08630	-84.11317	838.26978	-722.32355	158.61160	221.53160	-777.96814	227.30148	199.01096	-882.68695	296.01855	144.54250	-677.29230	51.43480	165.27206				-597.69678	225.78131	173.65498	-667.23077	301.53021	157.20486	-628.99878	309.07608	160.50238	-563.43390	260.64355	165.26292	-528.14496	303.95981	146.03166	-158.20544	134.99815	1290.53662	-779.16705	-21.40389	791.07227	-517.88068	-72.88283	142.73199	-563.31390	-39.30436	162.64818	-605.24536	17.21826	168.80109							-797.81433	50.96888	172.70349	-800.28058	176.52084	180.28441	-862.84216	-46.17280	463.94571	-666.59430	-71.14198	158.56535	-774.97540	-13.04005	198.50392	-875.99457	-78.94872	141.12155	-840.78748	-41.83042	598.67206	-624.19708	-81.61622	156.86694				-729.20575	68.24286	221.84686	-840.30676	-38.13055	551.58521							-777.65112	4.32617	522.14325	
281	5.600	-394.41006	274.84836	1125.12036	-854.84894	-73.82028	684.77411	-878.66418	279.97571	724.06738	-966.13745	79.83420	1082.04895	-851.65363	273.72131	857.31256	-785.63434	209.04515	804.93768	-366.28314	-41.28405	1128.81396	-868.99939	247.80678	615.06610	-677.34106	176.98517	162.53542	-784.79834	-17.67001	990.76807	-851.83124	243.03384	557.63837	-871.49829	254.85855	478.36142	-785.74121	203.74625	532.07391	-849.21655	-84.20620	838.53864	-722.32355	158.61160	221.53160	-777.96814	227.30148	199.01096	-882.79480	296.08548	144.51094	-677.29230	51.43480	165.27206				-597.65283	225.51352	173.88263	-667.30536	301.60196	157.33261	-629.00732	309.17014	160.42546	-563.18811	260.61383	165.06442	-528.12097	303.98367	146.31070	-157.69206	134.51463	1291.41443	-778.60767	-21.22087	791.24170	-517.86298	-72.77510	142.47707	-563.29767	-39.40485	162.79555	-604.97748	17.06345	168.87332							-797.65131	50.87002	172.47406	-800.28058	176.52084	180.28441	-862.30060	-46.15920	463.82858	-666.62238	-71.16404	158.44273	-775.10419	-13.03316	198.66719	-875.97748	-78.88188	141.21204	-840.39557	-41.88290	598.93182	-624.26184	-81.51950	157.13071				-729.44531	68.28677	221.87279	-839.91724	-37.77660	551.31213							-776.87115	4.53147	522.17773	
282	5.620	-393.77533	273.98813	1125.77307	-854.68158	-73.82600	684.69366	-878.15247	279.86642	723.99731	-965.94061	79.96497	1082.02661	-850.92462	273.77231	857.43658	-785.60803	208.82137	804.65991	-365.51837	-41.80729	1129.39587	-868.53894	248.08041	615.07037	-677.34106	176.98517	162.53542	-784.49426	-17.61692	990.85815	-851.53607	243.02322	557.49109	-871.15021	255.10895	478.30853	-785.98804	203.51231	531.69183	-849.20386	-83.60887	838.38452	-722.32355	158.61160	221.53160	-778.10535	227.34781	199.09598	-882.76855	296.06491	144.42624	-677.29230	51.43480	165.27206				-597.46368	225.63158	173.70607	-667.23077	301.53021	157.20486	-628.96600	309.11697	160.46165	-563.40601	260.56680	165.12292	-528.11340	303.91422	146.25079	-157.51402	133.71957	1292.33936	-778.18036	-21.49820	791.54852	-517.85474	-73.12505	142.69968	-563.23108	-39.50248	162.87691	-605.03302	17.15837	168.79199							-797.67773	50.94093	172.48753	-800.40936	176.47342	180.42993	-862.08820	-46.22629	463.94730	-666.70496	-71.17401	158.75401	-775.14233	-12.95247	198.65683	-875.97748	-78.88188	141.21204	-840.17474	-41.79815	598.94751	-624.33661	-81.60089	156.92467				-729.02441	68.39995	222.01602	-839.60199	-37.67997	551.68384							-776.95337	4.74104	522.01147	
283	5.640	-392.76523	274.07156	1126.55518	-854.63879	-73.46336	684.65985	-878.00464	279.93845	724.20123	-965.61493	80.30073	1081.96167	-850.56445	273.79910	857.53088	-784.93079	208.80782	804.81641	-365.63251	-41.97992	1129.64734	-868.41455	248.08902	615.04327	-677.46515	177.03891	162.70197	-783.61670	-18.15060	991.10083	-851.50104	243.11525	557.81158	-870.92151	255.10489	478.43466	-786.42963	203.19394	531.35962	-849.06598	-83.43416	838.36072	-722.29041	158.72946	221.68530	-778.10535	227.34781	199.09598	-882.73682	296.15533	144.54074	-677.12866	51.42073	165.08685				-597.70740	225.88797	173.74162	-667.23077	301.53021	157.20486	-628.96600	309.11697	160.46165	-563.21381	260.53220	165.10951	-528.02386	303.95050	146.19678	-157.43625	132.53874	1293.85950	-778.02698	-21.42900	791.62604	-517.89764	-73.14607	142.55914	-563.26251	-39.53159	162.80164	-605.06439	17.04082	168.75366							-797.62775	50.98552	172.59622	-800.49792	176.75514	180.17412	-862.15936	-46.06610	464.00565	-666.52283	-71.19978	158.65744	-775.52612	-13.18821	198.74059	-875.97748	-78.88188	141.21204	-839.65405	-41.79696	598.84686	-624.44214	-81.60955	156.97668				-729.12402	68.73944	221.88834	-839.56323	-37.60056	551.86053							-776.69312	4.87298	521.79443	
284	5.660				-854.38409	-73.37160	684.88019	-877.71973	280.15460	724.48938	-965.56171	80.42910	1081.93494	-849.55695	273.96896	857.91351	-784.60669	208.94566	804.83777				-867.94165	247.45123	615.05035	-677.46515	177.03891	162.70197	-783.38940	-18.02988	991.07147	-851.29797	242.92079	557.79114	-870.65424	255.47368	478.68024	-786.37646	203.11922	531.37054	-848.95569	-83.57144	838.41235	-722.29041	158.72946	221.68530	-778.02588	227.46817	199.11435	-882.58179	295.85300	144.38789	-677.12866	51.42073	165.08685				-597.59125	225.86600	173.71426	-667.23077	301.53021	157.20486	-628.94940	309.20715	160.40056	-563.35071	260.67572	165.23442	-528.08289	303.89709	146.16547	-157.65419	131.59988	1295.18262	-777.79919	-21.59686	791.66663	-517.96002	-73.11366	142.55386	-563.15112	-39.46159	162.78023	-604.91748	17.11719	168.64729							-797.71106	51.19708	172.73070	-800.49872	176.67255	180.40007	-861.95416	-46.04169	463.79895	-666.61725	-71.22269	158.80223	-775.55090	-13.06435	198.88335	-876.09851	-79.01610	140.98386	-839.79425	-41.60934	598.96173	-624.28986	-81.57739	157.01543				-729.00800	68.59304	221.68703	-839.65320	-37.42912	551.83636							-776.93579	5.15065	521.64148	
285	5.680	-392.01483	272.75711	1128.75378	-854.39948	-73.22980	684.96155	-877.37347	280.11005	725.07489	-964.40479	80.74254	1082.10425	-849.10797	273.88196	857.96716	-784.12341	208.58202	805.16797				-867.63501	247.64645	615.26593	-677.65582	177.24669	162.54021	-783.13690	-18.01678	991.21014	-850.86780	243.11192	557.66858	-870.48016	255.61208	479.03024	-786.22845	202.98099	531.28314	-848.42120	-83.43124	838.58496	-722.37366	158.74716	221.78297	-778.04089	227.43764	199.15686	-882.65179	296.02704	144.46056	-676.96844	51.46164	164.96347				-597.62012	225.60023	173.83081	-667.23077	301.53021	157.20486	-628.99878	309.07608	160.50238	-563.35535	260.61887	165.21712	-527.99945	304.02667	146.12309	-157.59633	130.57631	1297.24133	-777.60577	-21.70492	792.22217	-517.81329	-72.98037	142.76103	-563.27899	-39.49747	162.79822	-604.97485	17.11982	168.67393							-797.66937	51.02393	172.57600	-800.44855	176.68172	180.42261	-861.81750	-45.88255	464.19043	-666.60822	-71.08056	158.60538	-775.58191	-12.88491	199.10429	-876.20093	-79.02077	141.43263	-839.39612	-41.32408	598.83514	-624.28986	-81.57739	157.01543				-728.74200	68.78947	222.07903	-839.50342	-37.43985	552.13184							-776.85474	5.05082	521.78674	
286	5.700	-391.81860	272.14267	1130.56958	-853.62085	-73.21271	685.22791	-876.48541	280.13818	725.30823	-964.30066	80.70955	1082.23914	-848.87616	273.74213	858.12085	-783.36664	208.32552	805.42169	-365.96671	-44.86512	1132.56580	-867.16400	247.32304	615.20776	-677.46515	177.03891	162.70197	-783.02466	-17.90903	991.21490	-850.49554	243.00497	557.67249	-870.12933	255.73308	479.06177	-785.37750	203.19624	531.91101	-848.18103	-83.43064	838.74237	-722.32355	158.61160	221.53160	-778.27155	227.60715	199.38586	-882.62817	296.11435	144.56679	-677.03406	51.68284	164.77690				-597.59296	225.70796	173.88158	-667.11163	301.53561	157.34004	-628.97400	309.03448	160.56425	-563.22217	260.51880	165.08411	-528.19879	304.29419	146.12030	-157.78613	129.48750	1299.38318	-777.44525	-21.55277	792.36920	-517.98785	-72.92955	142.54131	-563.18921	-39.56532	162.85304	-604.95221	17.17266	168.75163							-797.71057	51.09349	172.83823	-800.44855	176.68172	180.42261	-861.82074	-45.72866	464.39459	-666.71332	-70.90084	158.55731	-775.41388	-12.97643	199.19662	-875.97589	-78.81084	141.28232	-839.16846	-41.32718	599.30615	-624.22321	-81.49649	157.20753				-728.82153	68.84593	221.95045	-839.32269	-37.02225	552.21155							-776.77026	5.45476	522.03741	
287	5.720	-391.79144	271.79587	1132.96228	-853.12201	-73.36609	685.62256	-875.80627	280.26224	725.43860	-963.92059	81.15699	1082.04407	-847.90424	273.87616	858.25629	-783.10803	208.75836	805.81006	-366.16190	-44.99736	1133.70508	-866.79706	247.74033	615.51392	-677.60748	177.11298	162.54294	-782.73285	-17.69737	991.43805	-850.19196	243.24799	557.93872	-869.85339	255.55313	479.35638	-784.71716	203.28429	532.09344	-847.94257	-83.47142	838.78925	-722.32355	158.61160	221.53160	-777.96814	227.30148	199.01096	-882.67053	296.19333	144.58157	-677.15527	51.54591	164.99521				-597.39441	225.67531	173.80289	-667.25195	301.30432	157.05943	-628.98254	309.12854	160.48734	-563.21600	260.69055	165.20442	-528.00085	303.98108	146.14594	-157.98834	128.30011	1302.10425	-777.01001	-21.63157	792.48297	-517.95575	-72.77988	142.47522	-563.14075	-39.55352	162.68109	-605.02771	17.34084	168.39107							-797.53021	51.29773	172.95895	-800.34076	176.57658	180.38214	-861.72131	-45.61550	464.62204	-666.63800	-70.89863	158.70621	-775.48859	-12.88325	199.16107	-875.97748	-78.88188	141.21204	-838.76190	-41.47148	599.56122	-624.22321	-81.49649	157.20753				-728.63177	68.87341	221.76579	-838.91016	-36.87152	552.01050							-776.74927	5.40570	521.87396	
288	5.740	-391.62067	270.94958	1135.15015	-853.12201	-73.36609	685.62256	-875.28333	280.21918	725.24133	-963.19513	81.63852	1081.75793	-847.42395	273.93942	858.54498	-782.83551	208.51146	805.89514	-366.64822	-45.75327	1135.38440	-866.56500	247.49921	615.41235	-677.34106	176.98517	162.53542	-782.12469	-17.95909	992.01312	-849.95996	243.31543	558.12305	-869.85938	255.51494	479.34326	-784.65381	203.42525	531.85162	-847.57111	-83.62675	839.19806	-722.32355	158.61160	221.53160	-778.13898	227.41473	199.19228	-882.53638	296.09531	144.59125	-676.89685	51.68505	164.95808				-597.51874	225.46495	173.66116	-667.11163	301.53561	157.34004	-628.99878	309.07608	160.50238	-563.23871	260.56177	164.97021	-528.00342	303.84854	146.29460	-158.25549	126.54942	1305.00732	-776.65710	-21.69722	792.51245	-517.89764	-73.14607	142.55914	-563.07861	-39.57841	162.71439	-604.81555	17.25386	168.35010							-797.52069	51.51401	172.93410	-800.49872	176.67255	180.40007	-861.72131	-45.61550	464.62204	-666.56305	-71.02604	158.83813	-774.79358	-12.30842	199.16399	-875.97748	-78.88188	141.21204	-838.65356	-41.23854	599.54230	-624.28088	-81.47909	157.11752				-728.63177	68.87341	221.76579	-838.68671	-36.66833	551.79010							-776.75854	5.47097	522.05786	
